{"title":"Secret Window*2004*[BluRay][1080p][ENG, POL]","uid":5841423,"size":7975955404,"categoryP":"video","categoryS":"hd___movies","magnet":"?xt=urn:btih:a6764af6c2270a80e851fc7f3572e006fb43f9c5&amp;dn=Secret+Window%2A2004%2A%5BBluRay%5D%5B1080p%5D%5BENG%2C+POL%5D&amp;tr=udp%3A%2F%2Ftracker.openbittorrent.com%3A80&amp;tr=udp%3A%2F%2Fopen.demonii.com%3A1337&amp;tr=udp%3A%2F%2Ftracker.coppersurfer.tk%3A6969&amp;tr=udp%3A%2F%2Fexodus.desync.com%3A6969","seeders":0,"leechers":0,"uploader":"albedo040","files":1,"time":1284976377,"description":"Secret Window*2004*[BluRay][1080p][ENG, POL]\n\nGeneral information:\nCountry: USA\nRelease: 12 March 2004\nGenre: Action, Mystery, Thriller \nDirector: David Koepp\nScreenplay: David Koepp, Stephen King (novel)\nOriginal Music: James Newton Howard\nCinematography by: Fred Murphy\nDuration: 1h 35mn\nLanguage: English, Polish\nSubtitles: English, Polish\nRating: 7.3/10 - 30137 votes \n\nCast:\nJohnny Depp  ...  Mort Rainey  \nJohn Turturro  ...  John Shooter  \nMaria Bello  ...  Amy Rainey  \nTimothy Hutton  ...  Ted Milner  \nCharles S. Dutton  ...  Ken Karsch  \nLen Cariou  ...  Sheriff Dave Newsome  \nJoan Heney  ...  Mrs. Garvey  \nJohn Dunn-Hill  ...  Tom Greenleaf (as John Dunn Hill)  \nVlasta Vrana  ...  Fire Chief Wickersham  \nMatt Holland  ...  Detective Bradley  \nGillian Ferrabee  ...  Fran Evans  \nBronwen Mantel  ...  Greta Bowie  \nElizabeth Marleau  ...  Juliet Stoker  \nKyle Allatt  ...  Busboy  \nRichard Jutras  ...  Motel Manager  \n\nPlot:\nA writer is accused for plagiarism by a strange man, who then starts haunting him for &quot;justice.&quot; \n\nSpecifications:\nGeneral\nFormat                           : Matroska\nOverall bit rate                 : 11.1 Mbps\n\nVideo\nFormat                           : AVC\nFormat/Info                      : Advanced Video Codec\nFormat profile                   : &lt;a class=&quot;__cf_email__&quot; href=&quot;/cdn-cgi/l/email-protection&quot; data-cfemail=&quot;e9a1808e81a9a5ddc7d9&quot;&gt;[email&amp;#160;protected]&lt;/a&gt;&lt;script data-cfhash='f9e31' type=&quot;text/javascript&quot;&gt;\n/* &lt;![CDATA[ */!function(){try{var t=&quot;currentScript&quot;in document?document.currentScript:function(){for(var t=document.getElementsByTagName(&quot;script&quot;),e=t.length;e--;)if(t[e].getAttribute(&quot;data-cfhash&quot;))return t[e]}();if(t&amp;&amp;t.previousSibling){var e,r,n,i,c=t.previousSibling,a=c.getAttribute(&quot;data-cfemail&quot;);if(a){for(e=&quot;&quot;,r=parseInt(a.substr(0,2),16),n=2;a.length-n;n+=2)i=parseInt(a.substr(n,2),16)^r,e+=String.fromCharCode(i);e=document.createTextNode(e),c.parentNode.replaceChild(e,c)}t.parentNode.removeChild(t);}}catch(u){}}()/* ]]&gt; */&lt;/script&gt;\nFormat settings, CABAC           : Yes\nFormat settings, ReFrames        : 3 frames\nFormat settings, GOP             : M=4, N=32\nMuxing mode                      : Container profile=&lt;a class=&quot;__cf_email__&quot; href=&quot;/cdn-cgi/l/email-protection&quot; data-cfemail=&quot;a5f0cbcecbcad2cbe5918b95&quot;&gt;[email&amp;#160;protected]&lt;/a&gt;&lt;script data-cfhash='f9e31' type=&quot;text/javascript&quot;&gt;\n/* &lt;![CDATA[ */!function(){try{var t=&quot;currentScript&quot;in document?document.currentScript:function(){for(var t=document.getElementsByTagName(&quot;script&quot;),e=t.length;e--;)if(t[e].getAttribute(&quot;data-cfhash&quot;))return t[e]}();if(t&amp;&amp;t.previousSibling){var e,r,n,i,c=t.previousSibling,a=c.getAttribute(&quot;data-cfemail&quot;);if(a){for(e=&quot;&quot;,r=parseInt(a.substr(0,2),16),n=2;a.length-n;n+=2)i=parseInt(a.substr(n,2),16)^r,e+=String.fromCharCode(i);e=document.createTextNode(e),c.parentNode.replaceChild(e,c)}t.parentNode.removeChild(t);}}catch(u){}}()/* ]]&gt; */&lt;/script&gt;\nCodec ID                         : V_MPEG4/ISO/AVC\nBit rate                         : 9 809 Kbps\nWidth                            : 1 920 pixels\nHeight                           : 1 080 pixels\nDisplay aspect ratio             : 16:9\nFrame rate                       : 23.976 fps\n\nAudio 1\nFormat                           : AC-3\nFormat/Info                      : Audio Coding 3\nMode extension                   : CM (complete main)\nCodec ID                         : A_AC3\nBit rate mode                    : Constant\nBit rate                         : 640 Kbps\nChannel(s)                       : 6 channels\nChannel positions                : Front: L C R, Side: L R, LFE\nSampling rate                    : 48.0 KHz\nBit depth                        : 16 bits\nStream size                      : 439 MiB (6%)\nTitle                            : English\n\nAudio 2\nID                               : 3\nFormat                           : AC-3\nFormat/Info                      : Audio Coding 3\nMode extension                   : CM (complete main)\nCodec ID                         : A_AC3\nBit rate mode                    : Constant\nBit rate                         : 640 Kbps\nChannel(s)                       : 6 channels\nChannel positions                : Front: L C R, Side: L R, LFE\nSampling rate                    : 48.0 KHz\nBit depth                        : 16 bits\nStream size                      : 439 MiB (6%)\nLanguage                         : Polish\n\nText 1\nFormat                           : UTF-8\nCodec ID                         : S_TEXT/UTF8\nCodec ID/Info                    : UTF-8 Plain Text\nTitle                            : English\n\nText 2\nFormat                           : UTF-8\nCodec ID                         : S_TEXT/UTF8\nCodec ID/Info                    : UTF-8 Plain Text\nLanguage                         : Polish\n","torrent":{"xt":"urn:btih:a6764af6c2270a80e851fc7f3572e006fb43f9c5","amp;dn":"Secret+Window%2A2004%2A%5BBluRay%5D%5B1080p%5D%5BENG%2C+POL%5D","amp;tr":["udp%3A%2F%2Ftracker.openbittorrent.com%3A80","udp%3A%2F%2Fopen.demonii.com%3A1337","udp%3A%2F%2Ftracker.coppersurfer.tk%3A6969","udp%3A%2F%2Fexodus.desync.com%3A6969"],"infoHash":"a6764af6c2270a80e851fc7f3572e006fb43f9c5","infoHashBuffer":{"type":"Buffer","data":[166,118,74,246,194,39,10,128,232,81,252,127,53,114,224,6,251,67,249,197]},"announce":[],"urlList":[]}}